<?xml version="1.0" encoding="utf-8"?>
<!-- Generator: Adobe Illustrator 18.0.0, SVG Export Plug-In . SVG Version: 6.00 Build 0)  -->
<!DOCTYPE svg PUBLIC "-//W3C//DTD SVG 1.1//EN" "http://www.w3.org/Graphics/SVG/1.1/DTD/svg11.dtd">
<svg version="1.1" id="Layer_1" xmlns="http://www.w3.org/2000/svg" xmlns:xlink="http://www.w3.org/1999/xlink" x="0px" y="0px"
	 viewBox="370.7 469.4 370.7 61.8" enable-background="new 370.7 469.4 370.7 61.8" xml:space="preserve" preserveAspectRatio="xMinYMid">
<g>
	<g>
		<defs>
			<rect id="SVGID_1_" x="370.7" y="469.4" width="360.2" height="61.8"/>
		</defs>
		<clipPath id="SVGID_2_">
			<use xlink:href="#SVGID_1_"  overflow="visible"/>
		</clipPath>
		<path clip-path="url(#SVGID_2_)" fill="#58595B" d="M718.1,530.4c2.6-0.6,4.8-1.4,6.7-2.6c1.9-1.2,3.4-2.8,4.5-4.6
			c1.1-1.9,1.7-4.1,1.7-6.7c0-3-0.5-5.4-1.7-7.3c-1.1-1.9-2.5-3.3-4.3-4.3c-1.8-1-3.6-1.8-5.7-2.2s-4.2-0.8-6.2-1.1
			c-1.2-0.2-2.4-0.3-3.4-0.5c-1.1-0.2-2-0.3-2.9-0.7c-0.8-0.2-1.4-0.6-1.9-1c-0.4-0.4-0.7-0.9-0.7-1.5c0-1.1,0.4-2,1.4-2.4
			c0.9-0.4,2-0.8,3.2-0.8c1.3,0,2.4,0.2,3.5,0.8c1,0.4,1.7,1.5,1.9,3.2h15c-0.3-4.2-2.1-7.5-5.5-9.8c-3.4-2.3-8.4-3.5-15-3.5
			c-2.6,0-5.2,0.3-7.5,0.9c-2.4,0.6-4.4,1.4-6.3,2.6c-1.9,1.2-3.2,2.6-4.3,4.4c-1,1.8-1.5,3.6-1.5,5.8c0,2.8,0.4,5,1.4,6.6
			s2.2,3.1,3.6,4c1.5,1,3.2,1.6,5.1,2.2c1.9,0.4,3.7,0.8,5.5,1.1c1.4,0.2,2.8,0.4,4,0.7c1.3,0.2,2.4,0.4,3.3,0.8
			c1,0.3,1.8,0.8,2.3,1.3s0.9,1.2,0.9,2.2c0,1.3-0.6,2.2-1.5,2.9c-1,0.5-2.3,0.9-4,0.9c-2,0-3.6-0.4-4.7-1.4c-1.1-1-1.7-2.4-1.9-4.2
			h-15.3c0,2.5,0.6,4.6,1.7,6.6c1.1,1.9,2.5,3.5,4.5,4.8c1.9,1.3,4.2,2.3,6.8,3c2.6,0.7,5.6,1,8.8,1
			C712.7,531.2,715.4,530.9,718.1,530.4 M683,529.8v-43.1h-16v23.2c0,2.3-0.5,4.2-1.8,5.6c-1.1,1.3-2.8,2-4.8,2
			c-3.9,0-5.7-2.3-5.7-6.8v-24h-16v27.8c0,2.5,0.3,4.7,1,6.7c0.7,2,1.6,3.7,2.9,5.3c1.3,1.4,2.9,2.6,4.7,3.4
			c1.9,0.8,4.2,1.2,6.7,1.2c3,0,5.6-0.5,7.7-1.8c2.2-1.2,4.1-2.9,5.7-5.2h0.2v5.6H683L683,529.8z M588.6,496.4h5.6v21
			c0,2.6,0.3,4.7,1,6.4c0.7,1.6,1.7,3.1,3,4.1c1.3,1,3,1.8,5,2.2c2,0.4,4.3,0.7,6.9,0.7c1.4,0,2.9-0.1,4.1-0.3
			c1.3-0.2,2.5-0.4,3.7-0.8v-11.8c-1.2,0.1-2.3,0.1-3.3,0.1c-1,0-1.9-0.2-2.5-0.4s-1.2-0.7-1.7-1.3c-0.3-0.5-0.5-1.4-0.5-2.5v-17.5
			h8.1v-9.7h-8.1v-14h-15.6v14h-5.6L588.6,496.4L588.6,496.4z M583.9,529.8v-43.1h-16v23.2c0,2.3-0.5,4.2-1.8,5.6
			c-1.1,1.3-2.8,2-4.8,2c-3.8,0-5.7-2.3-5.7-6.8v-24h-16v27.8c0,2.5,0.3,4.7,1,6.7c0.7,2,1.6,3.7,2.9,5.3c1.3,1.4,2.9,2.6,4.7,3.4
			c1.9,0.8,4.2,1.2,6.7,1.2c3,0,5.6-0.5,7.7-1.8c2.2-1.2,4.1-2.9,5.7-5.2h0.2v5.6H583.9L583.9,529.8z M505.6,517.2
			c-1.2-2.2-1.8-5.2-1.8-8.8s0.5-6.6,1.8-8.8c1.2-2.2,3-3.3,5.5-3.3s4.3,1.1,5.6,3.3c1.2,2.2,1.9,5.2,1.9,8.8s-0.7,6.6-1.9,8.8
			s-3.1,3.3-5.6,3.3C508.6,520.5,506.8,519.4,505.6,517.2 M521,529.4c2.9-1.1,5.4-2.8,7.4-4.7s3.6-4.4,4.7-7.3
			c1.1-2.8,1.7-5.8,1.7-9.1c0-3.3-0.5-6.3-1.7-9.1c-1.1-2.8-2.6-5.2-4.7-7.3c-2-2.1-4.5-3.6-7.4-4.8c-2.9-1.1-6.2-1.8-9.8-1.8
			s-6.8,0.5-9.8,1.8c-2.9,1.1-5.4,2.8-7.5,4.8s-3.6,4.5-4.7,7.3c-1.1,2.8-1.7,5.8-1.7,9.1c0,3.3,0.6,6.3,1.7,9.1
			c1.1,2.8,2.8,5.2,4.7,7.3c2.1,2,4.5,3.6,7.5,4.7c2.9,1.1,6.2,1.8,9.8,1.8C514.9,531.1,518.1,530.6,521,529.4 M454.4,516
			c-1.4-2.1-2.2-4.7-2.2-7.9c0-3.2,0.8-5.8,2.2-7.9c1.4-2.1,3.4-3.2,5.9-3.2c2.4,0,4.3,1,5.5,3c1.3,2,1.9,4.7,1.9,8
			c0,3.4-0.7,6-1.9,8c-1.2,2-3.1,3-5.6,3C457.8,519,455.8,518,454.4,516 M479.1,525.2c3.3-4,4.9-9.7,4.9-17c0-3.1-0.4-6.1-1.2-8.8
			s-2-5.2-3.5-7.3c-1.5-2.1-3.4-3.7-5.7-5c-2.3-1.2-4.8-1.9-7.7-1.9c-3,0-5.4,0.4-7.4,1.4s-3.7,2.4-5.3,4.4H453v-21.8h-16v60.4h15.1
			v-5.6h0.2c1.4,2.5,3.4,4.3,5.7,5.4c2.4,1.1,5,1.7,7.6,1.7C471.4,531.2,475.9,529.3,479.1,525.2 M399.2,496.9
			c0.6-1.5,1.1-3.2,1.5-5c0.2-1,0.4-1.9,0.8-2.8h0.2c0.3,0.9,0.5,1.9,0.8,2.8c0.4,1.8,1,3.4,1.5,5l3.9,11.8h-12.5L399.2,496.9z
			 M370.7,529.8h17.6l3-8.9h20.5l3,8.9h18.7l-22.3-60.4h-18L370.7,529.8z"/>
	</g>
</g>
</svg>
