<?xml version="1.0" encoding="utf-8"?>
<!-- Generator: Adobe Illustrator 18.0.0, SVG Export Plug-In . SVG Version: 6.00 Build 0)  -->
<!DOCTYPE svg PUBLIC "-//W3C//DTD SVG 1.1//EN" "http://www.w3.org/Graphics/SVG/1.1/DTD/svg11.dtd">
<svg version="1.1" id="Layer_1" xmlns="http://www.w3.org/2000/svg" xmlns:xlink="http://www.w3.org/1999/xlink" x="0px" y="0px"
	 viewBox="365.2 864.7 1069.1 175.2" enable-background="new 365.2 864.7 1069.1 175.2" xml:space="preserve" preserveAspectRatio="xMinYMid">
<g>
	<g>
		<g>
			<defs>
				<rect id="SVGID_1_" x="365.2" y="864.7" width="1069.1" height="175.2"/>
			</defs>
			<clipPath id="SVGID_2_">
				<use xlink:href="#SVGID_1_"  overflow="visible"/>
			</clipPath>
			<path clip-path="url(#SVGID_2_)" fill="#58595B" d="M1397.5,1037.6c7.4-1.4,13.6-4,19-7.4c5.4-3.4,9.6-7.9,12.8-13
				c3.1-5.1,4.8-11.6,4.8-19c0-8.5-1.7-15.3-4.8-20.7c-3.1-5.4-7.1-9.4-12.2-12.2c-5.1-2.8-10.2-5.1-16.2-6.2s-11.9-2.3-17.6-3.1
				c-3.4-0.6-6.8-0.9-9.6-1.4c-3.1-0.6-5.7-0.9-8.2-2c-2.3-0.6-4-1.7-5.4-2.8c-1.1-1.1-2-2.6-2-4.3c0-3.1,1.1-5.7,4-6.8
				c2.6-1.1,5.7-2.3,9.1-2.3c3.7,0,6.8,0.6,9.9,2.3c2.8,1.1,4.5,4.3,5.4,9.1h42.8c-0.9-11.9-6-21.3-15.6-27.8
				c-9.6-6.5-23.8-9.9-42.5-9.9c-7.4,0-14.7,0.9-21.3,2.6s-12.5,4-17.9,7.4c-5.1,3.4-9.1,7.4-12.2,12.5c-2.8,5.1-4.3,10.2-4.3,16.4
				c0,7.9,1.1,14.2,4,18.7c2.8,4.5,6.2,8.8,10.2,11.3c4.3,2.8,9.1,4.5,14.5,6.2c5.4,1.1,10.5,2.3,15.6,3.1c4,0.6,7.9,1.1,11.3,2
				c3.7,0.6,6.8,1.1,9.4,2.3c2.8,0.9,5.1,2.3,6.5,3.7c1.7,1.7,2.6,3.4,2.6,6.2c0,3.7-1.4,6.2-4.3,8.2c-2.8,1.7-6.5,2.6-11.3,2.6
				c-5.7,0-10.2-1.1-13.3-4c-3.1-2.8-4.8-6.8-5.4-11.9h-43.4c0,7.1,1.4,13,4.5,18.7c3.1,5.4,7.1,9.9,12.8,13.6
				c5.4,3.7,11.9,6.5,19.3,8.5c7.4,2,15.9,2.8,24.9,2.8C1382.4,1039.8,1390.4,1039,1397.5,1037.6 M1298,1035.9V913.7h-45.1v65.8
				c0,6.8-1.7,11.9-5.1,15.9c-3.1,3.7-7.9,5.7-13.6,5.7c-10.8,0-16.2-6.5-16.2-19.3v-68h-45.3v78.8c0,7.1,0.9,13.3,2.8,19
				c2,5.7,4.8,10.5,8.2,15c3.7,4,8.2,7.4,13.3,9.6c5.4,2.3,11.9,3.4,19,3.4c8.5,0,15.9-1.4,21.8-5.1c6.2-3.4,11.6-8.2,16.2-14.7h0.6
				v15.9L1298,1035.9L1298,1035.9z M1032.1,1000.1c-3.4-6.2-5.1-14.7-5.1-24.9c0-10.2,1.7-18.7,5.1-24.9c3.4-6.2,8.5-9.4,15.6-9.4
				s12.2,3.1,15.9,9.4c3.4,6.2,5.4,14.7,5.4,24.9c0,10.2-2,18.7-5.4,24.9c-3.4,6.2-8.8,9.4-15.9,9.4S1035.2,1006.4,1032.1,1000.1
				 M1075.8,1034.7c8.2-3.1,15.3-7.9,21-13.3c5.7-5.4,10.2-12.5,13.3-20.7c3.1-7.9,4.5-16.4,4.5-25.8s-1.4-17.9-4.5-25.8
				c-3.1-7.9-7.4-14.7-13.3-20.7c-5.7-6-12.8-10.2-21-13.6c-8.2-3.1-17.6-5.1-27.8-5.1s-19.3,1.7-27.8,5.1
				c-8.2,3.4-15.3,7.9-21.3,13.6c-6,6-10.2,12.8-13.3,20.7c-3.1,7.9-4.8,16.4-4.8,25.8s1.4,17.9,4.8,25.8
				c3.1,7.9,7.9,14.7,13.3,20.7c6,5.7,12.8,10.2,21.3,13.3c8.2,3.1,17.6,5.1,27.8,5.1C1058.2,1039.5,1067.3,1038.1,1075.8,1034.7
				 M889,941.2h15.9v59.5c0,7.4,0.9,13.3,2.8,18.1c2,4.5,4.5,8.8,8.5,11.6c3.7,2.8,8.5,5.1,14.2,6.2s12.2,2,19.6,2
				c4,0,8.2-0.3,11.6-0.9c3.7-0.6,7.1-1.1,10.5-2.3v-33.4c-3.4,0.3-6.5,0.3-9.4,0.3c-2.8,0-5.4-0.6-7.1-1.1c-1.7-0.6-3.4-2-4.5-3.7
				c-0.9-1.4-1.7-4-1.7-7.1v-49.6h23v-27.5h-23v-39.7h-44.5v39.7H889V941.2z M788.6,1035.9h51l-45.3-77.1l40.8-44.8h-51l-29.2,36.6
				v-85.3h-44.5v171.2h44.5V1003l9.4-10.2L788.6,1035.9z M642.7,1035.9h46.5V864.7h-46.5V1035.9z M547.2,1009.5
				c-2.8-2-4.3-4.5-4.3-9.1c0-3.7,1.1-6.5,3.7-8.8c2.6-2.3,6.8-3.7,13.6-5.4c3.7-0.9,7.1-1.7,9.9-2.6c2.8-0.9,5.4-2,7.4-3.1v11.1
				c0,7.4-2.3,12.5-6.2,15.9c-4.3,3.1-9.1,4.8-14.5,4.8C553.4,1012.3,550,1011.2,547.2,1009.5 M626.2,1035.9v-2
				c-2-1.1-3.1-3.4-3.7-6.2c-0.6-2.8-0.9-6.8-0.9-11.9v-61.2c0-16.4-6.2-28.6-19-36.6c-4.8-2.8-9.9-5.1-16.4-6.2
				c-6.2-1.1-14.2-2-23.8-2s-18.1,1.1-25.2,3.4s-13,5.7-18.1,9.4c-4.5,4-8.5,8.8-10.8,14.2c-2.6,5.4-3.7,11.1-4,17h42.8
				c0.6-4.3,2.3-8.2,4.5-10.5c2.6-2.6,6.2-4,11.3-4s8.5,1.1,10.2,3.4c2,2.3,2.8,5.1,2.8,8.5c0,2-0.6,3.4-1.4,5.1
				c-0.9,1.1-2.8,2.6-5.4,3.7c-2.6,1.1-6,2.3-10.2,2.8c-4.3,0.9-9.6,1.4-15.9,2.3c-6,0.6-11.6,1.4-16.7,3.1
				c-5.4,1.4-9.9,3.7-13.9,6.5c-4,2.8-7.1,6.5-9.6,11.3c-2.6,4.5-3.7,10.2-3.7,16.7c0,6,0.9,11.3,3.1,15.9c2.3,4.5,5.1,8.5,8.5,11.3
				c3.7,3.1,7.9,5.4,12.8,6.8c5.1,1.4,10.2,2.6,16.2,2.6c8.2,0,15-1.1,21.3-4c6.2-2.8,11.6-6.8,15.6-12.5h0.6c0.6,3.4,0.9,6,2,8.2
				c0.6,2.3,1.4,3.7,2.3,5.4h45.9v-0.6H626.2z M365.2,907.5h48.2v128.4h49.9V907.5h49v-42.8H365.2V907.5z"/>
		</g>
	</g>
</g>
</svg>
