<?xml version="1.0" encoding="utf-8"?>
<!-- Generator: Adobe Illustrator 18.0.0, SVG Export Plug-In . SVG Version: 6.00 Build 0)  -->
<!DOCTYPE svg PUBLIC "-//W3C//DTD SVG 1.1//EN" "http://www.w3.org/Graphics/SVG/1.1/DTD/svg11.dtd">
<svg version="1.1" id="Layer_1" xmlns="http://www.w3.org/2000/svg" xmlns:xlink="http://www.w3.org/1999/xlink" x="0px" y="0px"
	 viewBox="0 0 289.5 61.8" enable-background="new 0 0 289.5 61.8" xml:space="preserve">
<path fill="#FFFFFF" d="M32.7,26.9c1.2-1.2,1.8-2.8,1.8-4.7c0-1.9-0.5-3.4-1.8-4.5c-1.2-1.1-2.9-1.7-5-1.7h-8.8v12.8h8.9
	C29.9,28.8,31.5,28.1,32.7,26.9 M127.1,49.3c1.4-1.1,2.1-2.8,2.1-5.2v-3.5c-0.8,0.3-1.5,0.7-2.5,1c-0.9,0.3-2,0.7-3.3,0.9
	c-2.2,0.4-3.7,1.1-4.5,1.8c-0.8,0.7-1.2,1.6-1.2,2.9c0,1.3,0.4,2.3,1.4,3c1,0.7,2,0.9,3.2,0.9C124.1,51,125.7,50.4,127.1,49.3
	 M178.1,45.9c1.2-1.9,1.8-4.4,1.8-7.6c0-3.2-0.6-5.7-1.8-7.6c-1.2-1.9-2.9-2.8-5.2-2.8c-2.3,0-4.2,1-5.5,3c-1.3,2-2.1,4.4-2.1,7.4
	c0,3,0.7,5.5,2.1,7.5c1.3,2,3.2,3,5.5,3C175.2,48.7,176.9,47.8,178.1,45.9 M236,34.4h13.9c-0.3-2.3-1.1-4.1-2.2-5.3
	c-1.2-1.2-2.6-1.9-4.5-1.9c-2.1,0-3.6,0.7-4.8,2C237.2,30.4,236.4,32.2,236,34.4 M286.7,52c0,4.3-3.4,7.7-7.7,7.7
	c-4.3,0-7.7-3.4-7.7-7.7s3.4-7.7,7.7-7.7C283.3,44.2,286.7,47.7,286.7,52 M264.8,42.3h-28.7c0.4,2.4,1.3,4.2,2.5,5.5
	c1.3,1.3,3.1,2,5.3,2c2.6,0,4.5-1,5.6-3h14.4c-0.4,1.9-1.3,3.6-2.6,5.3c-1.3,1.7-3,3.2-5.1,4.4c-1.9,1.2-3.8,2.1-5.9,2.6
	s-4.4,0.8-7,0.8c-3.3,0-6.3-0.5-9-1.5c-2.6-1.1-4.9-2.5-6.9-4.4c-2-1.9-3.4-4.2-4.5-6.7c-1.1-2.6-1.5-5.5-1.5-8.6
	c0-3.1,0.6-5.9,1.5-8.5c1.1-2.6,2.5-4.8,4.4-6.8c1.9-1.9,4.2-3.4,6.8-4.5s5.5-1.6,8.7-1.6c3.2,0,5.9,0.4,8.4,1.4
	c2.4,1,4.6,2.3,6.5,4c2.4,2.3,4.3,5.1,5.5,8.6C264.3,34.5,264.9,38.2,264.8,42.3 M215.8,58.8h-15.3V2.2h15.3V58.8z M195,38.5
	c0,6.9-1.5,12.2-4.6,16s-7.3,5.6-12.7,5.6c-2.5,0-4.9-0.5-7.1-1.5c-2.2-1-4-2.8-5.4-5.1h-0.1v5.2h-14.2V2.1h15v20.3h0.2
	c1.4-1.8,3.1-3.2,4.9-4.1s4.2-1.4,6.9-1.4c2.6,0,5.1,0.6,7.3,1.7c2.1,1.1,4,2.6,5.4,4.6c1.4,1.9,2.5,4.2,3.3,6.8
	C194.6,32.8,195,35.6,195,38.5 M143.7,58.8h-14.5v-4.4H129c-1.3,1.9-3.1,3.2-5.2,4.1c-2.1,0.9-4.4,1.3-7,1.3c-2,0-3.7-0.2-5.4-0.8
	s-3.1-1.3-4.2-2.3c-1.2-1-2.1-2.2-2.8-3.7s-1-3.3-1-5.3c0-2.2,0.4-4.1,1.2-5.6c0.8-1.5,1.9-2.8,3.2-3.6c1.3-1,2.9-1.6,4.6-2.1
	c1.8-0.4,3.6-0.8,5.6-1c2.1-0.2,3.9-0.4,5.3-0.7c1.4-0.2,2.5-0.5,3.4-1c0.9-0.3,1.4-0.8,1.8-1.2c0.3-0.4,0.4-1,0.4-1.6
	c0-1.1-0.3-2-0.9-2.8c-0.7-0.8-1.8-1.1-3.4-1.1c-1.7,0-2.9,0.4-3.7,1.3c-0.9,0.9-1.3,2.1-1.5,3.5h-14.2c0-2,0.4-3.8,1.3-5.6
	c0.8-1.8,2-3.3,3.6-4.6c1.5-1.3,3.5-2.3,5.9-3.1s5.2-1.1,8.2-1.1s5.7,0.2,7.8,0.7c2.1,0.4,3.9,1.1,5.4,2.1c4.2,2.5,6.3,6.6,6.3,12.1
	v19.8C143.7,53.8,143.7,58.8,143.7,58.8 M97.8,58.8h-15V36.3c0-2.1-0.4-3.7-1.3-5.1c-0.9-1.3-2.3-1.9-4.3-1.9
	c-1.9,0-3.4,0.8-4.5,2.2c-1.1,1.4-1.7,3.3-1.7,5.5v21.8h-15V2.4h15v20.8h0.2c1.5-1.8,3.2-3.2,5.2-4.2c1.9-1.1,4.3-1.6,7.2-1.6
	c4.7,0,8.2,1.4,10.6,4.3c2.4,2.9,3.5,6.6,3.5,11.2v26H97.8z M50.9,22.4c0,2.8-0.4,5.3-1.4,7.6c-1,2.3-2.3,4.3-4.1,6
	c-1.8,1.8-3.7,3.1-6.2,4.1c-2.4,1-5,1.4-7.8,1.4H19v17.3H2.5V2.2h26c3.6,0,6.8,0.4,9.3,1.3c2.6,0.9,4.8,2.2,6.7,3.8
	c2,1.8,3.5,4,4.6,6.5C50.4,16.4,50.9,19.3,50.9,22.4"/>
</svg>
