<?xml version="1.0" encoding="utf-8"?>
<!-- Generator: Adobe Illustrator 18.0.0, SVG Export Plug-In . SVG Version: 6.00 Build 0)  -->
<!DOCTYPE svg PUBLIC "-//W3C//DTD SVG 1.1//EN" "http://www.w3.org/Graphics/SVG/1.1/DTD/svg11.dtd">
<svg version="1.1" id="Layer_1" xmlns="http://www.w3.org/2000/svg" xmlns:xlink="http://www.w3.org/1999/xlink" x="0px" y="0px"
	 viewBox="333 293.3 321.7 410.1" enable-background="new 333 293.3 321.7 410.1" xml:space="preserve">
<g>
	<path fill="#FFFFFF" d="M596.2,468.3c3.2-0.7,6-1.8,8.4-3.3s4.3-3.4,5.6-5.7c1.4-2.3,2-5.1,2-8.3c0-3.7-0.7-6.7-2.1-9
		c-1.4-2.3-3.2-4.1-5.3-5.4s-4.5-2.2-7.1-2.8s-5.2-1-7.6-1.4c-1.5-0.2-3-0.4-4.3-0.6s-2.5-0.5-3.5-0.8c-1-0.3-1.8-0.7-2.4-1.2
		c-0.6-0.5-0.8-1.1-0.8-1.9c0-1.4,0.6-2.4,1.7-3c1.2-0.6,2.5-0.9,3.9-0.9c1.6,0,3.1,0.3,4.4,0.9c1.3,0.6,2.1,1.9,2.4,3.9h18.7
		c-0.4-5.3-2.6-9.3-6.9-12.2c-4.2-2.9-10.5-4.4-18.7-4.4c-3.3,0-6.4,0.4-9.4,1.1c-2.9,0.7-5.5,1.8-7.8,3.3c-2.2,1.5-4,3.3-5.3,5.4
		c-1.3,2.1-1.9,4.6-1.9,7.3c0,3.4,0.6,6.1,1.8,8.2c1.2,2.1,2.7,3.8,4.6,5c1.9,1.2,3.9,2.1,6.3,2.7c2.3,0.6,4.6,1,6.8,1.4
		c1.8,0.3,3.4,0.5,5,0.8c1.6,0.2,3,0.6,4.2,0.9c1.2,0.4,2.2,0.9,2.9,1.6c0.7,0.7,1.1,1.6,1.1,2.7c0,1.6-0.6,2.8-1.9,3.5
		c-1.3,0.7-2.9,1.1-4.9,1.1c-2.5,0-4.5-0.6-5.8-1.8c-1.4-1.2-2.1-3-2.3-5.2h-19c0,3.1,0.7,5.8,2,8.2s3.2,4.4,5.6,6
		c2.4,1.6,5.2,2.8,8.5,3.7c3.3,0.8,6.9,1.3,10.9,1.3C589.5,469.3,593,469,596.2,468.3 M518.1,455.9c-1.3-0.8-1.9-2.1-1.9-3.9
		c0-1.6,0.5-2.9,1.6-3.8s3-1.7,6-2.3c1.7-0.4,3.1-0.7,4.4-1.2s2.3-0.9,3.3-1.4v4.7c0,3.2-0.9,5.5-2.8,6.9c-1.9,1.4-3.9,2.1-6.3,2.1
		C520.8,457.1,519.3,456.7,518.1,455.9 M552.6,467.5v-0.8c-0.8-0.6-1.4-1.5-1.6-2.7c-0.2-1.3-0.4-3-0.4-5.3v-26.8
		c0-7.3-2.8-12.6-8.3-16.1c-2-1.3-4.4-2.2-7.2-2.7c-2.8-0.6-6.2-0.8-10.4-0.8s-7.9,0.5-11,1.5c-3.2,1-5.8,2.4-7.9,4.2
		s-3.7,3.8-4.8,6.1c-1.1,2.3-1.7,4.9-1.7,7.5h18.8c0.3-2,1-3.5,2.1-4.7c1.1-1.2,2.8-1.7,4.9-1.7c2.2,0,3.7,0.5,4.5,1.5
		s1.2,2.2,1.2,3.7c0,0.8-0.2,1.6-0.6,2.2c-0.4,0.6-1.2,1.1-2.3,1.6s-2.6,0.9-4.5,1.3c-1.9,0.4-4.2,0.7-7,0.9
		c-2.6,0.3-5.1,0.7-7.4,1.4c-2.3,0.7-4.4,1.6-6.2,2.8c-1.8,1.3-3.2,2.9-4.3,4.9c-1.1,2-1.6,4.5-1.6,7.4c0,2.7,0.5,5,1.4,7
		s2.2,3.7,3.7,5c1.6,1.3,3.5,2.3,5.6,3c2.2,0.7,4.6,1,7.1,1c3.5,0,6.6-0.6,9.4-1.8c2.7-1.2,5-3,6.8-5.5h0.2c0.2,1.5,0.5,2.7,0.8,3.6
		c0.3,0.9,0.6,1.7,1,2.3L552.6,467.5L552.6,467.5z M466.5,428c1.6,1.7,2.6,4,3,7H451c0.6-2.9,1.6-5.3,3.2-7c1.5-1.7,3.7-2.6,6.4-2.6
		C462.9,425.5,464.9,426.3,466.5,428 M470.2,467.9c2.8-0.7,5.4-1.9,7.8-3.5c2.7-1.7,4.9-3.6,6.7-5.9c1.8-2.2,3-4.6,3.5-7H469
		c-1.5,2.7-4,4-7.5,4c-3,0-5.4-0.9-7.1-2.6c-1.7-1.8-2.9-4.2-3.4-7.4h38.3c0.1-5.3-0.6-10.3-2.1-14.8c-1.5-4.6-4-8.3-7.3-11.4
		c-2.5-2.2-5.3-4-8.6-5.3c-3.3-1.3-7-1.9-11.2-1.9s-8.1,0.7-11.6,2.2c-3.5,1.4-6.5,3.4-9,6s-4.5,5.6-5.9,9
		c-1.4,3.5-2.1,7.2-2.1,11.3c0,4.1,0.7,7.9,2.1,11.4s3.4,6.5,6,9s5.7,4.5,9.2,5.9c3.6,1.4,7.6,2.1,12,2.1
		C464.3,469,467.4,468.6,470.2,467.9 M386.5,450.4c-1.8-2.6-2.6-6-2.6-10.1c0-4.1,0.9-7.5,2.6-10s4.1-3.8,7-3.8c1.5,0,2.8,0.4,4,1.1
		s2.3,1.7,3.1,2.9c0.8,1.3,1.5,2.7,2,4.4s0.7,3.5,0.7,5.4c0,2-0.2,3.8-0.7,5.5s-1.2,3.2-2,4.4c-0.8,1.3-1.9,2.3-3.1,3
		s-2.6,1.1-4,1.1C390.6,454.3,388.2,453,386.5,450.4 M396.9,466.9c2.7-1.6,4.9-3.9,6.7-6.9h0.2v7.5h18.9v-75.2h-19.9v27.2h-0.3
		c-1.8-2.2-3.7-4-5.9-5.4c-2.2-1.3-5.2-2-9-2c-3.6,0-6.8,0.7-9.8,2c-2.9,1.4-5.5,3.3-7.6,5.8s-3.7,5.5-4.9,9
		c-1.2,3.5-1.7,7.3-1.7,11.5c0,4.6,0.6,8.7,1.8,12.3c1.2,3.6,2.9,6.6,5,9c2.1,2.4,4.7,4.3,7.6,5.5c2.9,1.3,6.2,1.9,9.7,1.9
		C391.2,469.3,394.2,468.5,396.9,466.9 M334.6,407.4h19.9v-15h-19.9V407.4z M334.6,467.5h19.9v-53.6h-19.9V467.5z"/>
	<path fill="#FFFFFF" d="M612.5,327h6.9v26.2c0,3.2,0.4,5.9,1.3,8c0.8,2.1,2.1,3.8,3.7,5c1.6,1.3,3.6,2.2,6.1,2.7s5.3,0.8,8.6,0.8
		c1.8,0,3.5-0.1,5.1-0.4c1.6-0.2,3.1-0.5,4.7-0.9v-14.6c-1.5,0.1-2.9,0.2-4.2,0.2c-1.2,0-2.3-0.2-3.2-0.5c-0.9-0.3-1.5-0.8-2-1.6
		c-0.5-0.7-0.7-1.8-0.7-3.1V327H649v-12h-10.2v-17.3h-19.4V315h-6.9L612.5,327L612.5,327z M570.2,293.5h-19.9v75.2h19.9v-29
		c0-2.9,0.7-5.4,2.2-7.3c1.4-1.9,3.4-2.9,5.9-2.9c2.6,0,4.5,0.8,5.7,2.5c1.2,1.7,1.8,3.9,1.8,6.7v29.9h19.9v-34.7
		c0-6.2-1.6-11.1-4.7-14.9c-3.2-3.8-7.8-5.7-14.1-5.7c-3.8,0-6.9,0.7-9.5,2.2c-2.5,1.4-4.8,3.3-6.8,5.6h-0.3v-27.6H570.2z
		 M506.5,348.6c-1.6-2.3-2.5-5.3-2.5-8.8c0-3.6,0.8-6.6,2.5-8.8c1.6-2.2,3.9-3.3,6.7-3.3c2.9,0,5.2,1.2,6.8,3.5
		c1.6,2.3,2.4,5.2,2.4,8.6c0,3.6-0.8,6.5-2.4,8.8c-1.6,2.3-3.8,3.5-6.8,3.5C510.4,352.1,508.2,351,506.5,348.6 M524.3,386
		c3.4-0.9,6.4-2.4,8.8-4.5c2.4-2,4.3-4.7,5.7-7.9c1.4-3.2,2.2-7,2.2-11.4V315h-18.9v5.9h-0.3c-1.5-2.3-3.5-4.2-5.9-5.5
		c-2.4-1.4-5.5-2.1-9.3-2.1c-3.3,0-6.3,0.7-9,2.1s-5,3.3-6.9,5.8s-3.4,5.3-4.4,8.7c-1.1,3.3-1.6,6.9-1.6,10.8c0,4.2,0.6,7.9,1.8,11
		c1.2,3.2,2.9,5.8,5,7.9c2.1,2.1,4.5,3.7,7.3,4.8c2.7,1.1,5.6,1.6,8.7,1.6c3.2,0,5.8-0.6,7.9-1.7c2.1-1.1,4-2.6,5.6-4.4h0.4v4.8
		c0,2.8-0.6,5.1-1.9,6.8c-1.3,1.7-3.5,2.6-6.7,2.6c-2.4,0-4.2-0.5-5.5-1.4c-1.3-0.9-2.1-2-2.5-3.1h-19.1c1,6,3.9,10.4,8.8,13.3
		s11.1,4.4,18.7,4.4C517.2,387.3,520.9,386.9,524.3,386 M457.7,308.5h19.9v-15h-19.9V308.5z M457.7,368.6h19.9V315h-19.9V368.6z
		 M430.4,315h-18.9v53.6h19.9v-22c0-6.1,1.6-10.4,4.8-13c3.2-2.6,7.8-3.3,13.7-2.4h0.4v-16.8c-0.7-0.3-1.8-0.5-3.3-0.5
		c-3.4,0-6.5,0.7-9.1,2.1c-2.6,1.4-5,3.8-7.2,7.1h-0.3V315z M357.1,322.7v-12.2h13.6c2.1,0,3.8,0.5,5.2,1.6c1.3,1.1,2,2.6,2,4.6
		s-0.6,3.5-1.9,4.5s-3,1.5-5.1,1.5H357.1z M357.1,351.4v-14.6h15.6c2.2,0,4.2,0.6,5.7,1.8c1.6,1.2,2.4,3,2.4,5.5
		c0,2.2-0.7,4-2.2,5.4c-1.5,1.3-3.4,2-5.8,2h-15.7V351.4z M335.5,368.6h39.6c3.9,0,7.4-0.4,10.4-1.2c3-0.8,5.6-2,7.8-3.6
		c2.7-1.9,4.8-4.3,6.3-7.4c1.5-3,2.3-6.6,2.3-10.6c0-4.3-1.1-8-3.4-11.2c-2.2-3.2-5.4-5.5-9.6-6.8v-0.3c3.2-1.4,5.5-3.3,7-5.6
		c1.5-2.3,2.3-5.3,2.3-8.8c0-3.2-0.6-6-1.9-8.5s-3-4.6-5.3-6.4c-2-1.5-4.4-2.7-7.1-3.6c-2.7-0.8-6-1.3-9.7-1.3h-38.9v75.3H335.5z"/>
	<path fill="#FFFFFF" d="M632.9,469.3c4.9,0,8.9-4,8.9-8.9s-4-8.9-8.9-8.9s-8.9,4-8.9,8.9C623.9,465.3,628,469.3,632.9,469.3"/>
	<path fill="#FFFFFF" d="M619.4,698.6c3.6-3,5.5-6.9,5.5-11.7c0-2.8-0.5-5.1-1.4-6.9s-2.2-3.3-3.9-4.5c-1.6-1.2-3.6-2.2-5.9-2.9
		c-2.3-0.7-4.8-1.4-7.6-1.9c-2.6-0.6-4.9-1.2-6.8-1.7c-2-0.5-3.6-1.2-4.9-1.9c-1.3-0.7-2.3-1.6-2.9-2.6c-0.6-1-0.9-2.3-0.9-3.8
		c0-2.5,1-4.7,3-6.4s5.2-2.6,9.4-2.6c4.1,0,7.3,0.9,9.6,2.7c2.3,1.8,3.7,4.5,4,8h6.5c-0.4-2.4-1-4.6-1.9-6.5c-0.9-2-2.2-3.7-3.8-5.1
		c-1.6-1.4-3.7-2.5-6-3.3c-2.4-0.8-5.2-1.2-8.4-1.2c-2.8,0-5.4,0.4-7.7,1c-2.3,0.7-4.3,1.7-6,2.9c-1.7,1.3-3,2.8-3.9,4.6
		s-1.4,3.9-1.4,6.1c0,2.7,0.5,4.9,1.6,6.6s2.5,3.1,4.3,4.3c1.8,1.1,3.9,2.1,6.3,2.8c2.4,0.7,5,1.4,7.7,2.1c2.8,0.6,5.1,1.2,7,1.8
		s3.3,1.3,4.5,2.1c1.1,0.8,1.9,1.7,2.4,2.8c0.5,1.1,0.7,2.3,0.7,3.8c0,3.2-1.2,5.7-3.5,7.6c-2.3,1.9-5.7,2.9-10.3,2.9
		c-4.4,0-8.1-1-10.9-2.9c-2.9-2-4.6-5.3-5-9.9H582c0.1,2.7,0.7,5.1,1.7,7.4c1,2.2,2.5,4.2,4.3,5.8c1.9,1.6,4.2,2.9,6.9,3.8
		c2.7,0.9,5.9,1.4,9.6,1.4C610.8,703.1,615.8,701.6,619.4,698.6 M532.9,670.5c0.3-2.7,0.9-5.3,1.7-7.6c0.9-2.3,2.1-4.3,3.5-6
		c1.5-1.7,3.3-3.1,5.4-4c2.1-1,4.6-1.5,7.3-1.5c2.8,0,5.2,0.5,7.3,1.5c2,1,3.7,2.3,5,4s2.3,3.7,3,6.1c0.7,2.3,1.1,4.9,1.2,7.5H532.9
		z M566.2,698.2c3.7-3.2,6.2-7.5,7.4-12.9h-6.3c-1.1,3.7-2.8,6.7-5.3,8.9s-6,3.3-10.6,3.3c-3.1,0-5.8-0.6-8.1-1.7
		c-2.3-1.1-4.2-2.7-5.7-4.6c-1.5-2-2.7-4.3-3.5-6.9c-0.8-2.6-1.2-5.5-1.3-8.6h41.4c0-3.8-0.4-7.5-1.2-11c-0.8-3.6-2.1-6.7-3.9-9.5
		c-1.9-2.8-4.3-5-7.3-6.6c-3-1.6-6.6-2.5-11-2.5c-3.8,0-7.2,0.7-10.2,2.2c-3,1.4-5.6,3.4-7.8,6c-2.1,2.6-3.8,5.6-5,9
		c-1.2,3.5-1.8,7.2-1.8,11.3s0.6,7.8,1.7,11.3c1.1,3.5,2.7,6.5,4.9,9c2.1,2.6,4.8,4.6,7.9,6c3.2,1.4,6.8,2.2,10.8,2.2
		C557.6,703,562.5,701.4,566.2,698.2 M508.1,635.7h6.5v-9.2h-6.5L508.1,635.7L508.1,635.7z M508.1,701.6h6.5v-54.3h-6.5L508.1,701.6
		L508.1,701.6z M473.6,701.6h6.5v-30.9c0-3.2,0.6-6.1,1.9-8.5c1.3-2.5,3-4.5,5.1-6.1c1.7-1.2,3.5-2,5.6-2.5c2-0.5,4-0.5,6-0.2V647
		c-0.2-0.1-0.5-0.1-0.7-0.2c-0.3,0-0.6-0.1-1.1-0.1c-3.8,0-7.1,1-9.9,2.9c-2.8,1.9-5,4.5-6.7,7.6h-0.2v-10.1h-6.5L473.6,701.6
		L473.6,701.6z M447.8,700.8c3.1-1.4,5.7-3.4,7.9-6c2.2-2.6,3.8-5.6,4.9-9c1.1-3.5,1.7-7.2,1.7-11.3c0-4.1-0.6-7.8-1.7-11.3
		s-2.8-6.5-4.9-9c-2.2-2.6-4.8-4.6-7.9-6c-3.1-1.4-6.6-2.2-10.5-2.2s-7.4,0.7-10.6,2.2c-3.1,1.4-5.8,3.4-7.9,6c-2.2,2.6-3.8,5.6-5,9
		c-1.2,3.5-1.7,7.2-1.7,11.3s0.6,7.8,1.7,11.3c1.2,3.5,2.8,6.5,5,9c2.2,2.6,4.8,4.6,7.9,6c3.1,1.4,6.6,2.2,10.6,2.2
		C441.2,703,444.7,702.3,447.8,700.8 M429.2,695.7c-2.3-1.2-4.2-2.8-5.8-4.9c-1.6-2.1-2.8-4.6-3.5-7.4c-0.8-2.8-1.2-5.8-1.2-8.9
		c0-3.2,0.4-6.1,1.2-8.9c0.8-2.8,1.9-5.3,3.5-7.4c1.6-2.1,3.5-3.7,5.8-4.9c2.3-1.2,5-1.8,8-1.8s5.7,0.6,8,1.8s4.2,2.8,5.8,4.9
		c1.5,2.1,2.7,4.6,3.5,7.4s1.2,5.8,1.2,8.9c0,3.2-0.4,6.1-1.2,8.9c-0.8,2.8-1.9,5.3-3.5,7.4c-1.5,2.1-3.5,3.7-5.8,4.9s-5,1.8-8,1.8
		S431.5,696.9,429.2,695.7 M406.1,701.1v-5.6h-0.3c-0.5,0.2-1.1,0.4-1.9,0.6s-1.6,0.3-2.4,0.3c-1.8,0-3.1-0.4-3.9-1.1
		c-0.9-0.7-1.3-2.1-1.3-4v-38.6h10.1v-5.4h-10.1v-16.7h-6.5v16.7h-8.2v5.4h8.2v39.6c0,3.5,0.9,6,2.8,7.5s4.4,2.3,7.6,2.3
		C402.2,702.1,404.2,701.7,406.1,701.1 M370.4,698.6c3.6-3,5.5-6.9,5.5-11.7c0-2.8-0.5-5.1-1.4-6.9s-2.2-3.3-3.9-4.5
		c-1.6-1.2-3.6-2.2-5.9-2.9s-4.8-1.4-7.6-1.9c-2.6-0.6-4.9-1.2-6.8-1.7c-2-0.5-3.6-1.2-4.9-1.9s-2.3-1.6-2.9-2.6s-0.9-2.3-0.9-3.8
		c0-2.5,1-4.7,3-6.4s5.2-2.6,9.4-2.6c4.1,0,7.3,0.9,9.6,2.7c2.3,1.8,3.7,4.5,4,8h6.5c-0.4-2.4-1-4.6-1.9-6.5c-0.9-2-2.2-3.7-3.8-5.1
		c-1.6-1.4-3.7-2.5-6-3.3c-2.4-0.8-5.2-1.2-8.4-1.2c-2.8,0-5.4,0.4-7.7,1c-2.3,0.7-4.3,1.7-6,2.9c-1.7,1.3-3,2.8-3.9,4.6
		s-1.4,3.9-1.4,6.1c0,2.7,0.5,4.9,1.6,6.6c1,1.7,2.5,3.1,4.3,4.3c1.8,1.1,3.9,2.1,6.3,2.8c2.4,0.7,5,1.4,7.7,2.1
		c2.8,0.6,5.1,1.2,7,1.8s3.3,1.3,4.5,2.1c1.1,0.8,1.9,1.7,2.4,2.8c0.5,1.1,0.7,2.3,0.7,3.8c0,3.2-1.2,5.7-3.5,7.6
		c-2.3,1.9-5.7,2.9-10.3,2.9c-4.4,0-8.1-1-10.9-2.9c-2.9-2-4.6-5.3-5-9.9H333c0.1,2.7,0.7,5.1,1.7,7.4c1,2.2,2.5,4.2,4.3,5.8
		c1.9,1.6,4.2,2.9,6.9,3.8c2.7,0.9,5.9,1.4,9.6,1.4C361.8,703.1,366.8,701.6,370.4,698.6"/>
	<path fill="#FFFFFF" d="M518.4,598.7c3.9-3.6,6.1-8.5,6.7-14.7h-6.2c-0.6,4.4-2.2,7.9-5,10.6c-2.8,2.6-6.5,3.9-11.1,3.9
		c-3.1,0-5.7-0.6-8-1.8c-2.2-1.2-4.1-2.8-5.6-4.9c-1.5-2.1-2.6-4.5-3.3-7.3c-0.7-2.8-1.1-5.7-1.1-8.9c0-3.2,0.4-6.1,1.1-8.9
		s1.8-5.2,3.3-7.3s3.3-3.7,5.6-4.9c2.3-1.2,5-1.8,8.1-1.8c4.2,0,7.6,1,10.2,3c2.6,2,4.3,5.1,5.1,9.1h6.5c-0.9-5.6-3.3-9.9-7.1-13
		c-3.8-3.1-8.7-4.6-14.8-4.6c-3.9,0-7.4,0.7-10.5,2.2c-3.1,1.4-5.7,3.4-7.8,6c-2.1,2.6-3.7,5.6-4.8,9c-1.1,3.5-1.7,7.2-1.7,11.3
		s0.5,7.8,1.6,11.3s2.7,6.5,4.8,9c2.1,2.6,4.7,4.6,7.7,6c3,1.4,6.6,2.2,10.6,2.2C509.4,604.1,514.5,602.3,518.4,598.7 M460,536.8
		h6.5v-9.2H460V536.8z M460,602.7h6.5v-54.3H460V602.7z M417.1,597c-2.3-1.1-4.2-2.7-5.8-4.7c-1.5-2-2.7-4.4-3.4-7.2
		c-0.7-2.8-1.1-5.8-1.1-9.2c0-3.2,0.4-6.2,1.2-9c0.8-2.8,1.9-5.3,3.5-7.4c1.5-2.1,3.5-3.7,5.7-4.9c2.3-1.2,4.9-1.8,7.9-1.8
		c2.7,0,5.1,0.6,7.2,1.7c2.1,1.1,3.8,2.7,5.2,4.7c1.4,2,2.5,4.5,3.2,7.3s1.1,5.9,1.1,9.3c0,3.2-0.4,6.1-1.1,8.9s-1.7,5.2-3.1,7.3
		c-1.4,2.1-3.1,3.8-5.2,4.9c-2.1,1.2-4.5,1.8-7.3,1.8C422.1,598.6,419.4,598.1,417.1,597 M400.8,620.2h6.5v-25.3h0.2
		c2,3,4.5,5.3,7.4,6.9c2.9,1.6,6.4,2.4,10.6,2.4c3.6,0,6.8-0.7,9.6-2.1c2.8-1.4,5.2-3.4,7.2-5.9s3.5-5.5,4.5-9
		c1.1-3.5,1.6-7.3,1.6-11.5c0-4.5-0.6-8.5-1.7-12s-2.7-6.5-4.7-8.9c-2-2.4-4.4-4.3-7.1-5.5c-2.8-1.3-5.8-1.9-9-1.9
		c-4.3,0-8,0.9-11,2.8c-3,1.9-5.5,4.5-7.4,7.7h-0.2v-9.4h-6.5V620.2z M337.7,602.7H390v-6.5h-45.2v-29.3h40.4v-6.1h-40.4v-27h44
		v-6.2h-51.1L337.7,602.7L337.7,602.7z"/>
	<path fill="#FFFFFF" d="M645.8,703.4c4.9,0,8.9-4,8.9-8.9c0-4.9-4-8.9-8.9-8.9s-8.9,4-8.9,8.9C636.9,699.4,640.9,703.4,645.8,703.4
		"/>
</g>
</svg>
